PathFileType	4	(X/Y/Z)	Walk2.trc
DataRate	CameraRate	NumFrames	NumMarkers	Units	OrigDataRate	OrigDataStartFrame	OrigNumFrames
200.000000	200.000000	6	59	mm	200.000000	249	574
Frame#	Times		RFHD		CLAV		STRN		LASI		RASI		RACR1		RUA1		RElbow		RFA1		RWRU		LACR1		LUA1		LFA1		LCAR		RTH1		RTH2		LTH3		LTH2		LTH4		LLFC		LTB1		LTB3		LTB4		LLMAL		LMT1		LToe		RTH3		LTH1		LFHD		C7		RCAR		RTH4		LWRR		RLFC		LTB2		RBack		RPSI		LMT5		LMMAL		RBHD		T10		LPSI		LElbow		RTB1		LWRU		RTB2		RCAL		RMMAL		RTB4		RToe		RMT1		RTB3		RWRR		LElbowM		LBHD		RElbowM		RMT5		RLMAL		LCAL
			X1	Y1	Z1	X2	Y2	Z2	X3	Y3	Z3	X4	Y4	Z4	X5	Y5	Z5	X6	Y6	Z6	X7	Y7	Z7	X8	Y8	Z8	X9	Y9	Z9	X10	Y10	Z10	X11	Y11	Z11	X12	Y12	Z12	X13	Y13	Z13	X14	Y14	Z14	X15	Y15	Z15	X16	Y16	Z16	X17	Y17	Z17	X18	Y18	Z18	X19	Y19	Z19	X20	Y20	Z20	X21	Y21	Z21	X22	Y22	Z22	X23	Y23	Z23	X24	Y24	Z24	X25	Y25	Z25	X26	Y26	Z26	X27	Y27	Z27	X28	Y28	Z28	X29	Y29	Z29	X30	Y30	Z30	X31	Y31	Z31	X32	Y32	Z32	X33	Y33	Z33	X34	Y34	Z34	X35	Y35	Z35	X36	Y36	Z36	X37	Y37	Z37	X38	Y38	Z38	X39	Y39	Z39	X40	Y40	Z40	X41	Y41	Z41	X42	Y42	Z42	X43	Y43	Z43	X44	Y44	Z44	X45	Y45	Z45	X46	Y46	Z46	X47	Y47	Z47	X48	Y48	Z48	X49	Y49	Z49	X50	Y50	Z50	X51	Y51	Z51	X52	Y52	Z52	X53	Y53	Z53	X54	Y54	Z54	X55	Y55	Z55	X56	Y56	Z56	X57	Y57	Z57	X58	Y58	Z58	X59	Y59	Z59

249	1.245	-641.49	1564.7	20.229	-697.67	1324.8	-24.524	-622.21	1101.8	-17.974	-668.84	921.95	-143.56	-676.72	931.82	131.93	-741.99	1339.5	150.8	-737.34	1129.8	216.41	-740.28	1022.2	243.63	-638.32	904.94	228.55	-627.2	792.76	234.51	-768.61	1336.1	-191.32	-824.54	1133	-231.2	-822.17	891.9	-258.62	-816.96	732.04	-265.29	-790.32	729.88	163.26	-740.21	638.89	110.15	-669.06	546.54	-151.57	-637.57	655.25	-131.14	-698.87	629.38	-170.72	-638.61	447.45	-134.9	-568.93	369.98	-60.595	-516.58	189.3	-62.928	-540.81	278.5	-65.808	-515.48	65.588	-105.07	-364.21	88.247	-75.873	-331.43	96.11	-101.39	-820.25	548.28	118.84	-729.98	720.6	-185.32	-643.86	1559.3	-52.84	-821.95	1405.2	-15.707	-569.35	773.92	223.82	-806.03	639.15	139.03	-802.37	774.43	-224.09	-852.9	445.64	101.04	-572.53	271.63	-130.56	-863.11	1300.7	85.243	-885.39	965.5	46.141	-398.12	50.301	-134.37	-498.94	89.008	-27.253	-816.28	1540.1	47.133	-857.37	1119.4	-13.662	-882.79	952.83	-67.977	-863.01	1018	-237.76	-878.08	321.56	20.993	-862.57	776.52	-262.8	-938.48	247.37	86.339	-1118.3	66.209	5.1036	-1042	98.292	-24.393	-929.11	244.16	14.745	-876.11	23.994	47.269	-919.19	35.734	9.6294	-980.42	167.11	8.8942	-588.47	819.3	177.94	-869.83	1005.8	-167.82	-814.06	1541.9	-79.785	-769.19	995.55	167.26	-968.89	21.367	92.456	-1065.7	87.134	54.507	-545.84	22.624	-45.187
250	1.25	-635.89	1564.2	19.626	-691.68	1324.1	-25.195	-616.14	1101.1	-18.464	-662.6	921.24	-143.65	-671.15	930.98	131.75	-735.99	1338.7	150.13	-731.36	1129.1	215.84	-734.62	1021.5	243.27	-632.79	904.13	228.22	-621.76	791.95	234.28	-762.71	1335.2	-191.97	-819.05	1132.2	-231.66	-817.49	891.01	-258.82	-812.89	731.13	-265.34	-785.34	729.22	163.06	-735.57	637.97	110.06	-662.11	546.61	-151.55	-630.86	655.33	-130.86	-691.98	629.42	-170.7	-631.89	447.23	-134.79	-563.07	369.32	-60.178	-511.9	188.4	-62.276	-535.53	277.7	-65.262	-511.68	64.78	-104.51	-360.28	85.563	-74.78	-327.23	92.772	-100.05	-815.96	547.68	118.81	-723.19	720.58	-185.38	-638.22	1558.8	-53.465	-816.05	1404.5	-16.367	-563.92	773.09	223.55	-801.39	638.52	138.91	-798.09	773.48	-224.19	-849.19	445.22	100.95	-566.96	271.07	-130.11	-857.15	1300	84.599	-879.52	964.81	45.63	-394.37	47.856	-133.52	-495.15	87.916	-26.645	-810.65	1539.2	46.452	-851.34	1118.7	-14.189	-876.79	952.33	-68.515	-857.8	1017.2	-238.01	-875.27	321.17	21.147	-858.34	775.78	-262.84	-936.52	247.73	86.569	-1117.9	68.12	5.4616	-1041.3	99.441	-24.01	-927.06	244.25	15.027	-876.1	23.985	47.272	-919.13	35.712	9.6511	-979.08	167.7	9.2364	-583.04	818.4	177.64	-864.58	1005.1	-168.07	-808.38	1541	-80.462	-763.48	994.76	166.9	-968.89	21.324	92.411	-1065.1	88.523	54.849	-542.94	22.64	-44.776
251	1.255	-630.27	1563.7	19.011	-685.65	1323.4	-25.892	-610.04	1100.4	-18.991	-656.33	920.6	-143.79	-665.51	930.15	131.53	-729.97	1338	149.44	-725.4	1128.4	215.26	-729	1020.9	242.9	-627.35	903.34	227.89	-616.43	791.17	234.04	-756.78	1334.4	-192.65	-813.5	1131.4	-232.15	-812.75	890.17	-259.04	-808.76	730.25	-265.41	-780.3	728.57	162.81	-730.82	637.08	109.94	-655.09	546.81	-151.53	-624.08	655.54	-130.61	-685.04	629.58	-170.69	-625.1	447.13	-134.7	-557.27	368.71	-59.755	-507.48	187.48	-61.618	-530.4	276.91	-64.707	-508.31	63.99	-103.96	-356.76	82.555	-73.665	-323.4	89.016	-98.675	-811.56	547.08	118.74	-716.35	720.7	-185.42	-632.54	1558.3	-54.104	-810.11	1403.7	-17.056	-558.62	772.26	223.29	-796.66	637.9	138.76	-793.74	772.57	-224.31	-845.33	444.82	100.83	-561.5	270.57	-129.66	-851.16	1299.3	83.926	-873.63	964.18	45.152	-391.1	45.23	-132.73	-491.78	86.782	-26.04	-804.98	1538.3	45.752	-845.26	1118	-14.706	-870.78	951.93	-69.032	-852.53	1016.5	-238.27	-872.34	320.82	21.307	-854.03	775.08	-262.9	-934.44	248.17	86.819	-1117.4	70.192	5.8823	-1040.4	100.69	-23.572	-924.89	244.4	15.335	-876.1	23.978	47.263	-919.06	35.689	9.6791	-977.64	168.36	9.6191	-577.71	817.51	177.35	-859.29	1004.5	-168.34	-802.66	1540.2	-81.159	-757.8	994.03	166.52	-968.87	21.279	92.361	-1064.4	90.031	55.241	-540.58	22.748	-44.418
252	1.26	-624.61	1563.3	18.385	-679.59	1322.7	-26.612	-603.89	1099.7	-19.551	-650.03	920.03	-143.96	-659.81	929.32	131.27	-723.91	1337.3	148.73	-719.47	1127.9	214.66	-723.44	1020.3	242.5	-621.99	902.58	227.57	-611.22	790.41	233.81	-750.81	1333.6	-193.36	-807.9	1130.7	-232.65	-807.94	889.38	-259.28	-804.54	729.43	-265.48	-775.18	727.94	162.53	-725.98	636.23	109.78	-648.02	547.14	-151.52	-617.24	655.88	-130.39	-678.05	629.87	-170.67	-618.25	447.15	-134.65	-551.52	368.16	-59.329	-503.31	186.58	-60.961	-525.42	276.16	-64.149	-505.31	63.249	-103.44	-353.6	79.294	-72.536	-319.91	84.927	-97.274	-807.02	546.5	118.64	-709.47	720.93	-185.44	-626.84	1557.9	-54.757	-804.14	1403.1	-17.772	-553.44	771.44	223.05	-791.83	637.29	138.58	-789.31	771.72	-224.44	-841.3	444.43	100.69	-556.15	270.16	-129.22	-845.14	1298.6	83.226	-867.7	963.59	44.711	-388.25	42.499	-132.03	-488.78	85.64	-25.445	-799.29	1537.5	45.031	-839.16	1117.3	-15.21	-864.77	951.64	-69.524	-847.19	1015.8	-238.55	-869.26	320.5	21.474	-849.64	774.42	-262.96	-932.23	248.69	87.093	-1116.8	72.441	6.3734	-1039.5	102.05	-23.071	-922.61	244.61	15.67	-876.11	23.971	47.241	-919	35.664	9.7143	-976.1	169.1	10.047	-572.47	816.63	177.07	-853.94	1003.9	-168.64	-796.92	1539.4	-81.875	-752.16	993.36	166.12	-968.85	21.234	92.305	-1063.6	91.669	55.69	-538.68	22.95	-44.121
253	1.265	-618.93	1562.9	17.749	-673.49	1322.1	-27.354	-597.71	1099.1	-20.142	-643.7	919.52	-144.16	-654.05	928.49	130.96	-717.82	1336.7	147.99	-713.58	1127.4	214.04	-717.93	1019.8	242.07	-616.71	901.85	227.25	-606.14	789.67	233.57	-744.81	1332.8	-194.09	-802.25	1130	-233.18	-803.07	888.64	-259.53	-800.25	728.67	-265.57	-769.98	727.34	162.2	-721.02	635.42	109.58	-640.92	547.59	-151.51	-610.37	656.35	-130.22	-671.06	630.29	-170.64	-611.36	447.3	-134.62	-545.84	367.67	-58.906	-499.36	185.73	-60.315	-520.57	275.46	-63.595	-502.64	62.578	-102.96	-350.78	75.856	-71.405	-316.73	80.598	-95.866	-802.34	545.94	118.51	-702.6	721.29	-185.46	-621.11	1557.6	-55.421	-798.13	1402.5	-18.516	-548.38	770.63	222.83	-786.89	636.7	138.36	-784.8	770.92	-224.58	-837.08	444.06	100.52	-550.88	269.83	-128.81	-839.08	1298.1	82.499	-861.75	963.07	44.309	-385.77	39.747	-131.45	-486.11	84.523	-24.866	-793.57	1536.8	44.29	-833.03	1116.8	-15.697	-858.77	951.46	-69.991	-841.78	1015.2	-238.86	-866	320.23	21.651	-845.18	773.81	-263.03	-929.87	249.3	87.393	-1116.1	74.885	6.9417	-1038.5	103.52	-22.499	-920.18	244.89	16.035	-876.13	23.964	47.206	-918.94	35.636	9.7582	-974.43	169.94	10.525	-567.33	815.77	176.8	-848.53	1003.4	-168.97	-791.15	1538.7	-82.612	-746.57	992.77	165.69	-968.81	21.192	92.245	-1062.8	93.45	56.203	-537.17	23.243	-43.887
254	1.27	-613.23	1562.6	17.104	-667.36	1321.7	-28.115	-591.48	1098.6	-20.76	-637.37	919.08	-144.37	-648.22	927.68	130.6	-711.71	1336.2	147.23	-707.72	1126.9	213.41	-712.47	1019.4	241.62	-611.53	901.17	226.94	-601.19	788.98	233.33	-738.77	1332.2	-194.84	-796.53	1129.4	-233.72	-798.13	887.96	-259.79	-795.89	727.97	-265.67	-764.69	726.76	161.83	-715.94	634.66	109.32	-633.83	548.17	-151.5	-603.48	656.94	-130.09	-664.09	630.82	-170.6	-604.45	447.57	-134.63	-540.22	367.26	-58.493	-495.6	184.93	-59.685	-515.86	274.82	-63.052	-500.25	61.993	-102.5	-348.24	72.325	-70.283	-313.82	76.132	-94.468	-797.49	545.38	118.34	-695.75	721.76	-185.47	-615.36	1557.4	-56.095	-792.09	1401.9	-19.285	-543.46	769.84	222.63	-781.83	636.13	138.1	-780.22	770.19	-224.73	-832.65	443.71	100.32	-545.69	269.59	-128.43	-833	1297.6	81.749	-855.79	962.6	43.949	-383.62	37.054	-131	-483.74	83.455	-24.307	-787.83	1536.2	43.529	-826.88	1116.3	-16.163	-852.76	951.4	-70.43	-836.3	1014.7	-239.18	-862.57	319.99	21.841	-840.64	773.26	-263.11	-927.33	250	87.722	-1115.3	77.54	7.5925	-1037.4	105.12	-21.852	-917.59	245.24	16.434	-876.16	23.955	47.157	-918.88	35.606	9.8121	-972.63	170.88	11.059	-562.29	814.94	176.54	-843.07	1002.9	-169.31	-785.35	1538.1	-83.368	-741.03	992.27	165.22	-968.76	21.159	92.179	-1061.8	95.383	56.787	-535.97	23.614	-43.715
